<?xml version="1.0" encoding="utf-8"?>
<!-- Generator: Adobe Illustrator 16.0.0, SVG Export Plug-In . SVG Version: 6.00 Build 0)  -->
<!DOCTYPE svg PUBLIC "-//W3C//DTD SVG 1.1//EN" "http://www.w3.org/Graphics/SVG/1.1/DTD/svg11.dtd">
<svg version="1.1" id="Layer_1" xmlns="http://www.w3.org/2000/svg" xmlns:xlink="http://www.w3.org/1999/xlink" x="0px" y="0px"
	 width="415px" height="414.996px" viewBox="0 0 415 414.996" enable-background="new 0 0 415 414.996" xml:space="preserve">
<path d="M353.381,160.858L211.748,62.806c-3.152-2.447-7.652-2.674-11.087-0.259L61.396,160.994
	c-2.666,1.646-4.442,4.594-4.442,7.957v175.852c0,5.161,4.184,9.346,9.347,9.346h282.397c5.164,0,9.348-4.184,9.348-9.346V168.949
	C358.046,165.494,356.169,162.476,353.381,160.858z M206.093,81.557l125.977,87.213l-113.423,75.059l-6.032-4.16
	c-3.145-2.508-7.681-2.777-11.153-0.364l-6.022,4.194L82.799,168.71L206.093,81.557z M75.649,186.35l103.332,68.611L75.649,326.914
	V186.35z M96.066,335.453l110.772-77.134l6.048,4.169c0.24,0.186,0.49,0.355,0.747,0.515l105.093,72.45H96.066z M339.354,327.04
	l-104.15-71.802l104.15-68.921V327.04z"/>
</svg>
