<?xml version="1.0" encoding="utf-8"?>
<!-- Generator: Adobe Illustrator 16.0.0, SVG Export Plug-In . SVG Version: 6.00 Build 0)  -->
<!DOCTYPE svg PUBLIC "-//W3C//DTD SVG 1.1//EN" "http://www.w3.org/Graphics/SVG/1.1/DTD/svg11.dtd">
<svg version="1.1" id="Layer_1" xmlns="http://www.w3.org/2000/svg" xmlns:xlink="http://www.w3.org/1999/xlink" x="0px" y="0px"
	 width="415px" height="414.996px" viewBox="0 0 415 414.996" enable-background="new 0 0 415 414.996" xml:space="preserve">
<g>
	<path d="M107.855,132.377c19.812,0,32.15-13.141,32.15-29.546c-0.369-16.771-12.338-29.54-31.771-29.54
		c-19.441,0-32.15,12.769-32.15,29.54c0,16.405,12.334,29.546,31.402,29.546H107.855L107.855,132.377z M136.27,326.684V155.711
		H79.443v170.973H136.27L136.27,326.684z"/>
	<path d="M167.715,326.684h56.826v-95.479c0-5.108,0.369-10.218,1.871-13.863c4.109-10.213,13.457-20.788,29.156-20.788
		c20.568,0,28.787,15.684,28.787,38.664v91.467h56.825V228.65c0-52.515-28.032-76.952-65.426-76.952
		c-30.657,0-44.116,17.139-51.59,28.81h0.375v-24.797h-56.826C168.461,171.75,167.715,326.684,167.715,326.684L167.715,326.684z"/>
</g>
</svg>
